<svg width="201" height="50" viewBox="0 0 201 50" fill="none" xmlns="http://www.w3.org/2000/svg">
<g clip-path="url(#clip0_1_1103)">
<path d="M29.6773 27.7357V38.6785L19.7894 44.1499V33.2071L29.6773 27.7357Z" fill="#7843E9"/>
<path d="M19.7894 33.2071V44.1499L9.87305 49.6214V38.6785L19.7894 33.2071Z" fill="#7843E9"/>
<path d="M9.87313 49.6214L-0.0146484 44.1499V33.2071L9.87313 38.6785V49.6214Z" fill="#7843E9"/>
<path d="M-0.0146484 22.2643L9.87313 16.793L19.7895 22.2643L9.87313 27.7357L-0.0146484 22.2643Z" fill="#7843E9"/>
<path d="M9.87313 38.6785L-0.0146484 33.2071V22.2643L9.87313 27.7357V38.6785Z" fill="#7843E9"/>
<path d="M19.7895 22.2643L19.7894 11.3215L29.6773 5.85014V16.7929L19.7895 22.2643Z" fill="#7843E9"/>
<path d="M29.6772 16.7929V5.85015L39.5936 0.378769V11.3215L29.6772 16.7929Z" fill="#7843E9"/>
<path d="M39.5938 0.378769L49.4814 5.85015V16.7929L39.5938 11.3215V0.378769Z" fill="#7843E9"/>
<path d="M49.4814 27.7357L39.5937 33.207L29.6772 27.7357L39.5937 22.2643L49.4814 27.7357Z" fill="#7843E9"/>
<path d="M39.5938 11.3215L49.4814 16.7929V27.7357L39.5938 22.2643V11.3215Z" fill="#7843E9"/>
<path d="M84.689 30.07V36.265C83.0074 37.105 81.2664 37.525 79.466 37.525C75.6049 37.525 72.5021 36.3933 70.1571 34.13C67.6938 31.7733 66.4619 28.8216 66.4619 25.275C66.4619 21.775 67.6938 18.8467 70.1571 16.49C72.5021 14.25 75.4511 13.13 79.0041 13.13C80.7568 13.13 82.6521 13.5617 84.689 14.425V20.655C83.1018 18.9984 81.2542 18.17 79.1462 18.17C77.2037 18.17 75.5932 18.7766 74.3141 19.99C72.8218 21.4133 72.0757 23.21 72.0757 25.38C72.0757 27.5033 72.7625 29.2183 74.1365 30.525C75.4628 31.8316 77.1682 32.485 79.2528 32.485C81.2187 32.485 83.0307 31.68 84.689 30.07ZM88.4719 21.39H93.5883V30C93.5883 31.1433 93.8842 31.9833 94.4765 32.52C95.0212 33.01 95.7318 33.255 96.6084 33.255C97.5083 33.255 98.2306 33.01 98.7757 32.52C99.3442 31.9833 99.6284 31.1433 99.6284 30V21.39H104.745V30.49C104.745 31.5633 104.626 32.4966 104.389 33.29C104.176 34.06 103.702 34.795 102.968 35.495C101.57 36.8483 99.4508 37.525 96.6084 37.525C93.7421 37.525 91.6103 36.8483 90.2129 35.495C89.0521 34.375 88.4719 32.8116 88.4719 30.805V21.39ZM117.156 25.45H113.994V37H108.877V25.45H107.101V21.39H108.877V16.35H113.994V21.39H117.156V25.45ZM137.082 30.07V36.265C135.4 37.105 133.659 37.525 131.859 37.525C127.998 37.525 124.896 36.3933 122.551 34.13C120.087 31.7733 118.855 28.8216 118.855 25.275C118.855 21.775 120.087 18.8467 122.551 16.49C124.896 14.25 127.845 13.13 131.398 13.13C133.15 13.13 135.045 13.5617 137.082 14.425V20.655C135.495 18.9984 133.648 18.17 131.54 18.17C129.597 18.17 127.987 18.7766 126.708 19.99C125.215 21.4133 124.469 23.21 124.469 25.38C124.469 27.5033 125.156 29.2183 126.53 30.525C127.856 31.8316 129.562 32.485 131.646 32.485C133.612 32.485 135.424 31.68 137.082 30.07ZM156.321 23.385C157.908 24.9483 158.701 26.885 158.701 29.195C158.701 31.505 157.908 33.4416 156.321 35.005C154.615 36.685 152.306 37.525 149.392 37.525C146.479 37.525 144.169 36.685 142.464 35.005C140.877 33.4416 140.083 31.505 140.083 29.195C140.083 26.885 140.877 24.9483 142.464 23.385C144.169 21.705 146.479 20.865 149.392 20.865C152.306 20.865 154.615 21.705 156.321 23.385ZM152.27 26.255C151.512 25.5083 150.553 25.135 149.392 25.135C148.232 25.135 147.273 25.5083 146.514 26.255C145.733 27.025 145.342 28.005 145.342 29.195C145.342 30.385 145.733 31.365 146.514 32.135C147.273 32.8816 148.244 33.255 149.428 33.255C150.565 33.255 151.512 32.8816 152.27 32.135C153.052 31.365 153.443 30.385 153.443 29.195C153.443 28.005 153.052 27.025 152.27 26.255ZM179.159 11.485V37H174.043V35.11C172.93 36.72 171.26 37.525 169.033 37.525C166.807 37.525 164.995 36.8133 163.597 35.39C161.939 33.7566 161.11 31.6683 161.11 29.125C161.11 26.5816 161.939 24.5283 163.597 22.965C165.089 21.565 166.925 20.865 169.104 20.865C171.26 20.865 172.906 21.6233 174.043 23.14V11.485H179.159ZM170.348 25.205C169.259 25.205 168.347 25.555 167.612 26.255C166.783 27.025 166.369 28.0166 166.369 29.23C166.369 30.3733 166.783 31.33 167.612 32.1C168.37 32.8233 169.259 33.185 170.277 33.185C171.414 33.185 172.385 32.8 173.19 32.03C173.972 31.3066 174.363 30.3733 174.363 29.23C174.363 28.11 173.984 27.1533 173.226 26.36C172.468 25.59 171.509 25.205 170.348 25.205ZM187.849 27.06H194.778C194.588 26.3133 194.245 25.7066 193.747 25.24C193.108 24.6566 192.302 24.365 191.331 24.365C190.289 24.365 189.424 24.7033 188.737 25.38C188.263 25.87 187.967 26.43 187.849 27.06ZM199.503 29.545V30.07H187.672C187.672 31.1433 187.991 32.03 188.631 32.73C189.247 33.3833 190.123 33.71 191.26 33.71C192.113 33.71 192.8 33.5583 193.321 33.255C193.723 33.045 194.09 32.6133 194.422 31.96L199.254 32.45C198.709 34.1533 197.691 35.46 196.199 36.37C194.896 37.14 193.226 37.525 191.189 37.525C188.489 37.525 186.38 36.7783 184.865 35.285C183.277 33.7216 182.484 31.715 182.484 29.265C182.484 26.7916 183.289 24.7383 184.9 23.105C186.416 21.6116 188.441 20.865 190.976 20.865C193.652 20.865 195.749 21.6466 197.265 23.21C198.757 24.7733 199.503 26.885 199.503 29.545Z" fill="white"/>
</g>
<defs>
<clipPath id="clip0_1_1103">
<rect width="201" height="50" fill="white"/>
</clipPath>
</defs>
</svg>
