<svg width="325" height="324" viewBox="0 0 325 324" fill="none" xmlns="http://www.w3.org/2000/svg">
<path d="M194.963 179.999V251.999L130.037 287.999V215.999L194.963 179.999Z" fill="white"/>
<path d="M130.037 215.999V287.999L64.9241 324V251.999L130.037 215.999Z" fill="white"/>
<path d="M64.925 324L0 287.999V215.999L64.925 251.999V324Z" fill="white"/>
<path d="M0 143.999L64.9249 107.999L130.038 143.999L64.9249 179.999L0 143.999Z" fill="white"/>
<path d="M64.925 251.999L0 215.999V143.999L64.925 179.999V251.999Z" fill="white"/>
<path d="M130.037 143.999L130.037 71.9996L194.963 36V108L130.037 143.999Z" fill="white"/>
<path d="M194.962 107.999V35.9998L260.075 0V71.9994L194.962 107.999Z" fill="white"/>
<path d="M260.076 0L325 35.9998V107.999L260.076 71.9994V0Z" fill="white"/>
<path d="M325 179.999L260.075 215.999L194.962 180L260.075 143.999L325 179.999Z" fill="white"/>
<path d="M260.076 71.9985L325 107.998V179.998L260.076 143.998V71.9985Z" fill="white"/>
</svg>
