<svg width="155" height="38" viewBox="0 0 155 38" fill="none" xmlns="http://www.w3.org/2000/svg">
<g clip-path="url(#clip0_45_5633)">
<path d="M22.8855 21.0791V29.3956L15.2605 33.5539V25.2373L22.8855 21.0791Z" fill="#7843E9"/>
<path d="M15.2605 25.2373V33.5539L7.61353 37.7122V29.3956L15.2605 25.2373Z" fill="#7843E9"/>
<path d="M7.61355 37.7122L-0.0113525 33.5539V25.2373L7.61355 29.3956V37.7122Z" fill="#7843E9"/>
<path d="M-0.0113525 16.9209L7.61355 12.7627L15.2605 16.9209L7.61355 21.0792L-0.0113525 16.9209Z" fill="#7843E9"/>
<path d="M7.61355 29.3957L-0.0113525 25.2374V16.9209L7.61355 21.0792V29.3957Z" fill="#7843E9"/>
<path d="M15.2605 16.921L15.2605 8.60451L22.8855 4.44629V12.7628L15.2605 16.921Z" fill="#7843E9"/>
<path d="M22.8855 12.7628V4.44634L30.5325 0.288086V8.60456L22.8855 12.7628Z" fill="#7843E9"/>
<path d="M30.5325 0.288086L38.1573 4.44634V12.7628L30.5325 8.60456V0.288086Z" fill="#7843E9"/>
<path d="M38.1573 21.0792L30.5325 25.2374L22.8855 21.0792L30.5325 16.9209L38.1573 21.0792Z" fill="#7843E9"/>
<path d="M30.5325 8.60449L38.1573 12.7628V21.0792L30.5325 16.921V8.60449Z" fill="#7843E9"/>
<path d="M65.3074 22.8531V27.5613C64.0106 28.1997 62.6681 28.5189 61.2797 28.5189C58.3022 28.5189 55.9095 27.6589 54.1012 25.9387C52.2017 24.1477 51.2517 21.9044 51.2517 19.2089C51.2517 16.5489 52.2017 14.3234 54.1012 12.5323C55.9095 10.8299 58.1837 9.97872 60.9235 9.97872C62.2751 9.97872 63.7366 10.3068 65.3074 10.9629V15.6977C64.0834 14.4387 62.6587 13.8091 61.0331 13.8091C59.5352 13.8091 58.2932 14.2702 57.3069 15.1923C56.1561 16.2741 55.5807 17.6395 55.5807 19.2887C55.5807 20.9025 56.1103 22.2059 57.1699 23.1989C58.1927 24.192 59.5078 24.6885 61.1153 24.6885C62.6313 24.6885 64.0286 24.0767 65.3074 22.8531ZM68.2246 16.2563H72.1701V22.7999C72.1701 23.6689 72.3982 24.3073 72.855 24.7151C73.275 25.0875 73.823 25.2737 74.499 25.2737C75.1929 25.2737 75.7499 25.0875 76.1703 24.7151C76.6087 24.3073 76.8279 23.6689 76.8279 22.7999V16.2563H80.7733V23.1723C80.7733 23.9881 80.6817 24.6974 80.4993 25.3003C80.3349 25.8855 79.9694 26.4441 79.4034 26.9761C78.3254 28.0047 76.6909 28.5189 74.499 28.5189C72.2886 28.5189 70.6447 28.0047 69.5672 26.9761C68.672 26.1249 68.2246 24.9368 68.2246 23.4117V16.2563ZM90.3442 19.3419H87.9057V28.1199H83.9602V19.3419H82.5903V16.2563H83.9602V12.4259H87.9057V16.2563H90.3442V19.3419ZM105.71 22.8531V27.5613C104.413 28.1997 103.071 28.5189 101.683 28.5189C98.7052 28.5189 96.3125 27.6589 94.5041 25.9387C92.6042 24.1477 91.6546 21.9044 91.6546 19.2089C91.6546 16.5489 92.6042 14.3234 94.5041 12.5323C96.3125 10.8299 98.5866 9.97872 101.326 9.97872C102.678 9.97872 104.139 10.3068 105.71 10.9629V15.6977C104.486 14.4387 103.062 13.8091 101.436 13.8091C99.9382 13.8091 98.6962 14.2702 97.7098 15.1923C96.5591 16.2741 95.9837 17.6395 95.9837 19.2887C95.9837 20.9025 96.5133 22.2059 97.5728 23.1989C98.5956 24.192 99.9108 24.6885 101.518 24.6885C103.034 24.6885 104.432 24.0767 105.71 22.8531ZM120.546 17.7725C121.77 18.9607 122.381 20.4325 122.381 22.1881C122.381 23.9437 121.77 25.4156 120.546 26.6037C119.231 27.8805 117.45 28.5189 115.203 28.5189C112.956 28.5189 111.175 27.8805 109.86 26.6037C108.637 25.4156 108.024 23.9437 108.024 22.1881C108.024 20.4325 108.637 18.9607 109.86 17.7725C111.175 16.4957 112.956 15.8573 115.203 15.8573C117.45 15.8573 119.231 16.4957 120.546 17.7725ZM117.422 19.9537C116.838 19.3863 116.098 19.1025 115.203 19.1025C114.308 19.1025 113.568 19.3863 112.984 19.9537C112.381 20.5389 112.079 21.2837 112.079 22.1881C112.079 23.0925 112.381 23.8373 112.984 24.4225C113.568 24.99 114.317 25.2737 115.23 25.2737C116.107 25.2737 116.838 24.99 117.422 24.4225C118.025 23.8373 118.326 23.0925 118.326 22.1881C118.326 21.2837 118.025 20.5389 117.422 19.9537ZM138.158 8.72852V28.1199H134.212V26.6835C133.354 27.9071 132.066 28.5189 130.349 28.5189C128.632 28.5189 127.235 27.9781 126.157 26.8963C124.879 25.655 124.239 24.0679 124.239 22.1349C124.239 20.202 124.879 18.6415 126.157 17.4533C127.308 16.3893 128.724 15.8573 130.404 15.8573C132.066 15.8573 133.336 16.4337 134.212 17.5863V8.72852H138.158ZM131.363 19.1557C130.523 19.1557 129.819 19.4217 129.253 19.9537C128.614 20.5389 128.294 21.2926 128.294 22.2147C128.294 23.0837 128.614 23.8107 129.253 24.3959C129.838 24.9457 130.523 25.2205 131.308 25.2205C132.185 25.2205 132.934 24.9279 133.555 24.3427C134.158 23.793 134.459 23.0837 134.459 22.2147C134.459 21.3635 134.167 20.6365 133.582 20.0335C132.998 19.4483 132.258 19.1557 131.363 19.1557ZM144.859 20.5655H150.202C150.055 19.9981 149.791 19.537 149.407 19.1823C148.914 18.739 148.293 18.5173 147.544 18.5173C146.74 18.5173 146.073 18.7745 145.544 19.2887C145.178 19.6611 144.95 20.0867 144.859 20.5655ZM153.846 22.4541V22.8531H144.722C144.722 23.6689 144.968 24.3427 145.462 24.8747C145.936 25.3713 146.612 25.6195 147.489 25.6195C148.147 25.6195 148.676 25.5043 149.078 25.2737C149.389 25.1141 149.672 24.7861 149.928 24.2895L153.654 24.6619C153.233 25.9565 152.448 26.9495 151.298 27.6411C150.293 28.2263 149.005 28.5189 147.434 28.5189C145.352 28.5189 143.726 27.9515 142.557 26.8165C141.333 25.6284 140.722 24.1033 140.722 22.2413C140.722 20.3616 141.342 18.8011 142.585 17.5597C143.753 16.4248 145.315 15.8573 147.27 15.8573C149.334 15.8573 150.95 16.4514 152.12 17.6395C153.27 18.8277 153.846 20.4325 153.846 22.4541Z" fill="#7843E9"/>
</g>
<defs>
<clipPath id="clip0_45_5633">
<rect width="155" height="38" fill="white"/>
</clipPath>
</defs>
</svg>
