<?xml version="1.0" standalone="no"?>
<!DOCTYPE svg PUBLIC "-//W3C//DTD SVG 20010904//EN"
 "http://www.w3.org/TR/2001/REC-SVG-20010904/DTD/svg10.dtd">
<svg version="1.0" xmlns="http://www.w3.org/2000/svg"
 width="529.000000pt" height="529.000000pt" viewBox="0 0 529.000000 529.000000"
 preserveAspectRatio="xMidYMid meet">
<metadata>
Created by potrace 1.11, written by Peter Selinger 2001-2013
</metadata>
<g transform="translate(0.000000,529.000000) scale(0.100000,-0.100000)"
fill="#000000" stroke="none">
<path d="M4050 5233 c-278 -161 -358 -208 -390 -226 -68 -38 -205 -118 -220
-127 -8 -6 -26 -16 -40 -22 -14 -7 -48 -27 -77 -45 -29 -18 -54 -33 -57 -33
-3 0 -30 -16 -60 -35 -30 -19 -57 -35 -60 -35 -3 0 -51 -27 -106 -60 -55 -33
-103 -60 -106 -60 -3 0 -30 -16 -60 -35 -30 -19 -57 -35 -60 -35 -3 0 -30 -16
-60 -35 -30 -19 -56 -35 -58 -35 -3 0 -174 -98 -226 -130 -8 -5 -67 -38 -130
-75 -63 -36 -135 -77 -160 -91 -25 -14 -49 -30 -55 -35 -6 -6 -10 -218 -10
-589 0 -319 -4 -580 -8 -580 -4 0 -49 24 -100 53 -373 218 -903 520 -912 520
-9 0 -291 -162 -835 -478 -74 -43 -145 -84 -157 -89 l-23 -11 0 -1177 0 -1176
78 -45 c42 -24 93 -54 112 -65 116 -66 580 -333 610 -352 68 -40 212 -120 219
-120 7 0 297 166 716 410 50 29 113 65 140 80 28 15 127 72 221 127 94 55 177
103 185 106 8 4 28 15 44 26 40 24 526 305 590 341 28 15 69 39 92 51 l43 24
0 588 c0 324 4 587 8 585 8 -3 283 -161 312 -179 8 -5 168 -97 355 -205 304
-175 342 -194 363 -184 20 9 542 309 642 369 19 11 42 24 50 28 8 4 71 40 139
80 67 40 126 73 130 73 5 0 15 8 23 18 13 15 15 160 14 1186 l-1 1169 -30 17
c-33 19 -368 213 -725 420 -129 75 -242 139 -250 142 -9 3 -57 -18 -110 -49z
m98 -1709 l-3 -586 -45 -25 c-25 -14 -97 -56 -160 -93 -63 -37 -146 -85 -185
-107 -38 -22 -205 -118 -370 -213 -165 -95 -320 -184 -345 -198 -25 -14 -61
-35 -80 -47 -19 -12 -55 -33 -80 -47 -48 -27 -180 -103 -332 -191 -234 -136
-758 -438 -1008 -582 -151 -87 -292 -169 -312 -182 -21 -12 -40 -23 -43 -23
-3 0 -23 -11 -45 -25 -21 -13 -41 -21 -43 -17 -1 4 -3 268 -2 586 l1 579 224
130 c124 71 243 140 265 152 22 13 96 56 165 95 69 40 143 83 165 95 22 13
166 96 320 185 154 89 294 170 310 180 17 9 75 43 130 75 55 32 114 66 130 75
17 9 149 86 295 170 146 84 282 163 303 174 20 12 118 68 218 126 99 58 199
116 222 129 23 13 89 51 147 85 136 80 144 84 153 85 4 1 6 -263 5 -585z"/>
</g>
</svg>
