<svg width="20" height="20" viewBox="0 0 20 20" fill="none" xmlns="http://www.w3.org/2000/svg">
<g clip-path="url(#clip0_1053_283)">
<path d="M13.3337 5C13.5547 5 13.7666 5.0878 13.9229 5.24408C14.0792 5.40036 14.167 5.61232 14.167 5.83333C14.167 6.05435 14.0792 6.26631 13.9229 6.42259C13.7666 6.57887 13.5547 6.66667 13.3337 6.66667H6.66699C6.44598 6.66667 6.23402 6.57887 6.07774 6.42259C5.92146 6.26631 5.83366 6.05435 5.83366 5.83333C5.83366 5.61232 5.92146 5.40036 6.07774 5.24408C6.23402 5.0878 6.44598 5 6.66699 5H13.3337ZM19.7562 19.7558C19.5999 19.9121 19.388 19.9998 19.167 19.9998C18.946 19.9998 18.7341 19.9121 18.5778 19.7558L16.572 17.75C15.978 18.1291 15.2884 18.3315 14.5837 18.3333C13.842 18.3333 13.117 18.1134 12.5003 17.7013C11.8836 17.2893 11.4029 16.7036 11.1191 16.0184C10.8353 15.3332 10.761 14.5792 10.9057 13.8517C11.0504 13.1243 11.4076 12.4561 11.932 11.9317C12.4565 11.4072 13.1246 11.0501 13.8521 10.9054C14.5795 10.7607 15.3335 10.835 16.0187 11.1188C16.7039 11.4026 17.2896 11.8833 17.7017 12.4999C18.1137 13.1166 18.3337 13.8417 18.3337 14.5833C18.3318 15.288 18.1295 15.9776 17.7503 16.5717L19.7562 18.5775C19.9124 18.7338 20.0001 18.9457 20.0001 19.1667C20.0001 19.3876 19.9124 19.5996 19.7562 19.7558ZM14.5837 16.6667C14.9957 16.6667 15.3985 16.5445 15.7411 16.3156C16.0837 16.0866 16.3507 15.7613 16.5084 15.3806C16.6661 14.9999 16.7073 14.581 16.627 14.1769C16.5466 13.7728 16.3482 13.4016 16.0568 13.1102C15.7654 12.8188 15.3942 12.6204 14.9901 12.54C14.586 12.4596 14.1671 12.5009 13.7864 12.6586C13.4057 12.8163 13.0804 13.0833 12.8514 13.4259C12.6225 13.7685 12.5003 14.1713 12.5003 14.5833C12.5003 15.1359 12.7198 15.6658 13.1105 16.0565C13.5012 16.4472 14.0311 16.6667 14.5837 16.6667ZM10.8337 18.3333H5.83366C5.17062 18.3333 4.53473 18.0699 4.06589 17.6011C3.59705 17.1323 3.33366 16.4964 3.33366 15.8333V4.16667C3.33366 3.50363 3.59705 2.86774 4.06589 2.3989C4.53473 1.93006 5.17062 1.66667 5.83366 1.66667H15.8337C16.0547 1.66667 16.2666 1.75446 16.4229 1.91074C16.5792 2.06702 16.667 2.27899 16.667 2.5V9.16667C16.667 9.38768 16.7548 9.59964 16.9111 9.75592C17.0674 9.9122 17.2793 10 17.5003 10C17.7213 10 17.9333 9.9122 18.0896 9.75592C18.2459 9.59964 18.3337 9.38768 18.3337 9.16667V2.5C18.3337 1.83696 18.0703 1.20107 17.6014 0.732233C17.1326 0.263392 16.4967 0 15.8337 0L5.83366 0C4.729 0.00132321 3.66996 0.440735 2.88884 1.22185C2.10773 2.00296 1.66832 3.062 1.66699 4.16667V15.8333C1.66832 16.938 2.10773 17.997 2.88884 18.7782C3.66996 19.5593 4.729 19.9987 5.83366 20H10.8337C11.0547 20 11.2666 19.9122 11.4229 19.7559C11.5792 19.5996 11.667 19.3877 11.667 19.1667C11.667 18.9457 11.5792 18.7337 11.4229 18.5774C11.2666 18.4211 11.0547 18.3333 10.8337 18.3333Z" fill="#EC4176"/>
</g>
<defs>
<clipPath id="clip0_1053_283">
<rect width="20" height="20" fill="white"/>
</clipPath>
</defs>
</svg>
