<svg width="20" height="20" viewBox="0 0 20 20" fill="none" xmlns="http://www.w3.org/2000/svg">
<g clip-path="url(#clip0_1053_264)">
<path d="M10 3.33333C9.77899 3.33333 9.56702 3.24554 9.41074 3.08926C9.25446 2.93298 9.16667 2.72101 9.16667 2.5V0.833333C9.16667 0.61232 9.25446 0.400358 9.41074 0.244078C9.56702 0.0877974 9.77899 0 10 0C10.221 0 10.433 0.0877974 10.5893 0.244078C10.7455 0.400358 10.8333 0.61232 10.8333 0.833333V2.5C10.8333 2.72101 10.7455 2.93298 10.5893 3.08926C10.433 3.24554 10.221 3.33333 10 3.33333ZM10.8333 19.1667V17.5C10.8333 17.279 10.7455 17.067 10.5893 16.9107C10.433 16.7545 10.221 16.6667 10 16.6667C9.77899 16.6667 9.56702 16.7545 9.41074 16.9107C9.25446 17.067 9.16667 17.279 9.16667 17.5V19.1667C9.16667 19.3877 9.25446 19.5996 9.41074 19.7559C9.56702 19.9122 9.77899 20 10 20C10.221 20 10.433 19.9122 10.5893 19.7559C10.7455 19.5996 10.8333 19.3877 10.8333 19.1667ZM3.33333 10C3.33333 9.77899 3.24554 9.56702 3.08926 9.41074C2.93298 9.25446 2.72101 9.16667 2.5 9.16667H0.833333C0.61232 9.16667 0.400358 9.25446 0.244078 9.41074C0.0877974 9.56702 0 9.77899 0 10C0 10.221 0.0877974 10.433 0.244078 10.5893C0.400358 10.7455 0.61232 10.8333 0.833333 10.8333H2.5C2.72101 10.8333 2.93298 10.7455 3.08926 10.5893C3.24554 10.433 3.33333 10.221 3.33333 10ZM20 10C20 9.77899 19.9122 9.56702 19.7559 9.41074C19.5996 9.25446 19.3877 9.16667 19.1667 9.16667H17.5C17.279 9.16667 17.067 9.25446 16.9107 9.41074C16.7545 9.56702 16.6667 9.77899 16.6667 10C16.6667 10.221 16.7545 10.433 16.9107 10.5893C17.067 10.7455 17.279 10.8333 17.5 10.8333H19.1667C19.3877 10.8333 19.5996 10.7455 19.7559 10.5893C19.9122 10.433 20 10.221 20 10ZM14.4825 3.92917L15.3158 2.48667C15.4185 2.29588 15.4428 2.0726 15.3837 1.86418C15.3245 1.65575 15.1865 1.47857 14.9989 1.37019C14.8113 1.26181 14.5888 1.23075 14.3787 1.28361C14.1686 1.33647 13.9873 1.46908 13.8733 1.65333L13.04 3.09583C12.9294 3.28713 12.8994 3.51451 12.9564 3.72798C13.0134 3.94144 13.1529 4.12352 13.3442 4.23417C13.4706 4.30809 13.6144 4.34692 13.7608 4.34667C13.9072 4.34658 14.0509 4.30795 14.1776 4.23465C14.3043 4.16136 14.4095 4.056 14.4825 3.92917V3.92917ZM6.12417 18.3458L6.9575 16.9033C7.06017 16.7125 7.0845 16.4893 7.02533 16.2808C6.96616 16.0724 6.82814 15.8952 6.64053 15.7869C6.45293 15.6785 6.23049 15.6474 6.02037 15.7003C5.81026 15.7531 5.62899 15.8857 5.515 16.07L4.68167 17.5125C4.57103 17.7037 4.54083 17.931 4.59771 18.1445C4.65458 18.3579 4.79389 18.54 4.985 18.6508C5.11143 18.7247 5.25525 18.7635 5.40167 18.7633C5.54792 18.7636 5.69168 18.7255 5.81851 18.6526C5.94533 18.5798 6.05075 18.4748 6.12417 18.3483V18.3458ZM4.2325 6.65583C4.34314 6.46464 4.37334 6.23733 4.31646 6.02388C4.25958 5.81042 4.12028 5.62829 3.92917 5.5175L2.48667 4.68417C2.29588 4.58149 2.0726 4.55716 1.86418 4.61634C1.65575 4.67551 1.47857 4.81353 1.37019 5.00113C1.26181 5.18874 1.23075 5.41118 1.28361 5.62129C1.33647 5.83141 1.46908 6.01268 1.65333 6.12667L3.09583 6.96C3.28713 7.07057 3.51451 7.10064 3.72798 7.0436C3.94144 6.98657 4.12352 6.84709 4.23417 6.65583H4.2325ZM18.6492 15.015C18.7041 14.9203 18.7398 14.8157 18.7543 14.7072C18.7687 14.5987 18.7617 14.4884 18.7335 14.3826C18.7054 14.2768 18.6566 14.1776 18.5901 14.0906C18.5236 14.0037 18.4406 13.9307 18.3458 13.8758L16.9033 13.0425C16.7125 12.9398 16.4893 12.9155 16.2808 12.9747C16.0724 13.0338 15.8952 13.1719 15.7869 13.3595C15.6785 13.5471 15.6474 13.7695 15.7003 13.9796C15.7531 14.1897 15.8857 14.371 16.07 14.485L17.5125 15.3183C17.6389 15.3923 17.7827 15.4311 17.9292 15.4308C18.0755 15.4311 18.2193 15.3927 18.3462 15.3198C18.473 15.2468 18.5784 15.1416 18.6517 15.015H18.6492ZM6.65583 4.2325C6.84709 4.12185 6.98657 3.93978 7.0436 3.72631C7.10064 3.51284 7.07057 3.28546 6.96 3.09417L6.12667 1.65167C6.01268 1.46742 5.83141 1.3348 5.62129 1.28194C5.41118 1.22909 5.18874 1.26014 5.00113 1.36852C4.81353 1.4769 4.67551 1.65408 4.61634 1.86251C4.55716 2.07093 4.58149 2.29421 4.68417 2.485L5.5175 3.9275C5.59064 4.05418 5.69583 4.15938 5.82251 4.23252C5.94919 4.30566 6.09289 4.34416 6.23917 4.34417C6.38552 4.34468 6.52935 4.30613 6.65583 4.2325V4.2325ZM15.015 18.6492C15.2061 18.5384 15.3454 18.3562 15.4023 18.1428C15.4592 17.9293 15.429 17.702 15.3183 17.5108L14.485 16.0683C14.371 15.8841 14.1897 15.7515 13.9796 15.6986C13.7695 15.6458 13.5471 15.6768 13.3595 15.7852C13.1719 15.8936 13.0338 16.0708 12.9747 16.2792C12.9155 16.4876 12.9398 16.7109 13.0425 16.9017L13.8758 18.3442C13.9307 18.4389 14.0037 18.5219 14.0906 18.5884C14.1776 18.655 14.2768 18.7037 14.3826 18.7319C14.4884 18.76 14.5987 18.7671 14.7072 18.7526C14.8157 18.7381 14.9203 18.7024 15.015 18.6475V18.6492ZM16.9058 6.9575L18.3483 6.12417C18.5326 6.01018 18.6652 5.82891 18.7181 5.61879C18.7709 5.40868 18.7399 5.18624 18.6315 4.99863C18.5231 4.81103 18.3459 4.67301 18.1375 4.61384C17.9291 4.55467 17.7058 4.57899 17.515 4.68167L16.0725 5.515C15.8882 5.62899 15.7556 5.81026 15.7028 6.02037C15.6499 6.23049 15.681 6.45293 15.7894 6.64053C15.8977 6.82814 16.0749 6.96616 16.2833 7.02533C16.4918 7.0845 16.715 7.06017 16.9058 6.9575ZM2.48917 15.3158L3.93167 14.4825C4.11592 14.3685 4.24853 14.1872 4.30139 13.9771C4.35425 13.767 4.32319 13.5446 4.21481 13.357C4.10643 13.1694 3.92925 13.0313 3.72082 12.9722C3.5124 12.913 3.28912 12.9373 3.09833 13.04L1.65583 13.8733C1.49698 13.9651 1.37282 14.1066 1.30263 14.2761C1.23243 14.4456 1.22012 14.6335 1.2676 14.8107C1.31508 14.9879 1.41969 15.1444 1.56522 15.2561C1.71075 15.3678 1.88906 15.4283 2.0725 15.4283C2.21785 15.4289 2.36076 15.391 2.48667 15.3183L2.48917 15.3158Z" fill="#EC4176"/>
</g>
<defs>
<clipPath id="clip0_1053_264">
<rect width="20" height="20" fill="white"/>
</clipPath>
</defs>
</svg>
