<svg width="48" height="48" viewBox="0 0 48 48" fill="none" xmlns="http://www.w3.org/2000/svg">
<path d="M24 0C10.7451 0 0 10.7451 0 24C0 37.2549 10.7451 48 24 48C37.2549 48 48 37.2549 48 24C48 10.7451 37.2549 0 24 0Z" fill="#40B3E0"/>
<path d="M35.6781 13.8051L31.3913 35.418C31.3913 35.418 30.7918 36.9169 29.1431 36.1974L19.251 28.6134L15.654 26.8749L9.5989 24.8364C9.5989 24.8364 8.66965 24.5068 8.57965 23.7874C8.48965 23.0679 9.6289 22.6783 9.6289 22.6783L33.6994 13.2358C33.6994 13.2358 35.6779 12.3666 35.6779 13.8054" fill="white"/>
<path d="M18.4908 35.1764C18.4908 35.1764 18.2021 35.1494 17.8421 34.0102C17.4826 32.8711 15.6539 26.876 15.6539 26.876L30.1923 17.6435C30.1923 17.6435 31.0317 17.1339 31.0017 17.6435C31.0017 17.6435 31.1516 17.7335 30.7017 18.1531C30.2523 18.5729 19.2811 28.4349 19.2811 28.4349" fill="#D2E5F1"/>
<path d="M23.0438 31.5221L19.1312 35.0894C19.1312 35.0894 18.8252 35.3216 18.4907 35.1761L19.24 28.5498" fill="#B5CFE4"/>
</svg>
