<svg width="20" height="20" viewBox="0 0 20 20" fill="none" xmlns="http://www.w3.org/2000/svg">
<g clip-path="url(#clip0_1053_257)">
<path d="M10.0003 5C9.77931 5 9.56735 5.0878 9.41107 5.24408C9.25479 5.40036 9.16699 5.61232 9.16699 5.83333V10C9.16704 10.221 9.25487 10.4329 9.41116 10.5892L11.9112 13.0892C12.0683 13.241 12.2788 13.325 12.4973 13.3231C12.7158 13.3212 12.9248 13.2335 13.0793 13.079C13.2338 12.9245 13.3215 12.7155 13.3234 12.497C13.3253 12.2785 13.2413 12.068 13.0895 11.9108L10.8337 9.655V5.83333C10.8337 5.61232 10.7459 5.40036 10.5896 5.24408C10.4333 5.0878 10.2213 5 10.0003 5V5Z" fill="#693762"/>
<circle cx="10" cy="10" r="9.165" stroke="#693762" stroke-width="1.67"/>
</g>
<defs>
<clipPath id="clip0_1053_257">
<rect width="20" height="20" fill="white"/>
</clipPath>
</defs>
</svg>
