<svg width="24" height="25" viewBox="0 0 24 25" fill="none" xmlns="http://www.w3.org/2000/svg">
<g clip-path="url(#clip0_73_163)">
<path d="M11.988 0.5C5.364 0.5 0 5.876 0 12.5C0 19.124 5.364 24.5 11.988 24.5C18.624 24.5 24 19.124 24 12.5C24 5.876 18.624 0.5 11.988 0.5ZM16.8 17.3C16.689 17.4112 16.5571 17.4995 16.4119 17.5597C16.2668 17.6199 16.1112 17.6509 15.954 17.6509C15.7968 17.6509 15.6412 17.6199 15.4961 17.5597C15.3509 17.4995 15.219 17.4112 15.108 17.3L11.16 13.352C11.0466 13.2409 10.9564 13.1083 10.8946 12.9621C10.8328 12.8158 10.8007 12.6588 10.8 12.5V7.7C10.8 7.04 11.34 6.5 12 6.5C12.66 6.5 13.2 7.04 13.2 7.7V12.008L16.8 15.608C17.268 16.076 17.268 16.832 16.8 17.3Z" fill="#7843E9"/>
</g>
<defs>
<clipPath id="clip0_73_163">
<rect width="24" height="24" fill="white" transform="translate(0 0.5)"/>
</clipPath>
</defs>
</svg>
