<svg width="35" height="24" viewBox="0 0 35 24" fill="none" xmlns="http://www.w3.org/2000/svg">
<g clip-path="url(#clip0_121_155)">
<path d="M34.246 3.74333C34.0502 3.01981 33.6683 2.36019 33.1383 1.83017C32.6083 1.30015 31.9487 0.918215 31.2252 0.7224C28.5764 0 17.9158 0 17.9158 0C17.9158 0 7.25475 0.0218666 4.60595 0.744267C3.88241 0.940093 3.22281 1.32205 2.69281 1.85209C2.16281 2.38214 1.78091 3.04178 1.58515 3.76533C0.783947 8.47173 0.473147 15.6432 1.60715 20.1613C1.80293 20.8849 2.18484 21.5445 2.71483 22.0745C3.24483 22.6045 3.90443 22.9865 4.62795 23.1823C7.27675 23.9047 17.9376 23.9047 17.9376 23.9047C17.9376 23.9047 28.5982 23.9047 31.2469 23.1823C31.9704 22.9865 32.6301 22.6045 33.1601 22.0745C33.6901 21.5445 34.072 20.8849 34.2678 20.1613C35.1129 15.4483 35.3733 8.28133 34.246 3.74347V3.74333Z" fill="#FF0000"/>
<path d="M14.5227 17.0749L23.3666 11.9525L14.5228 6.83008L14.5227 17.0749Z" fill="white"/>
</g>
<defs>
<clipPath id="clip0_121_155">
<rect width="34.1333" height="24" fill="white" transform="translate(0.866699)"/>
</clipPath>
</defs>
</svg>
